<?xml version="1.0" encoding="UTF-8"?>
<svg id="Layer_2" data-name="Layer 2" xmlns="http://www.w3.org/2000/svg" viewBox="0 0 203.96 196.96">
  <defs>
    <style>
      .cls-1 {
        fill: #f96815;
      }
    </style>
  </defs>
  <g id="Layer_3" data-name="Layer 3">
    <path class="cls-1" d="m173.65,98.48c-4.85,0-9.01,3.48-9.85,8.26l-5.94,33.69c-1.69,9.58-9.97,16.53-19.7,16.53H60.02c-8.11,0-13.08-4.48-15.32-7.14s-5.78-8.34-4.38-16.33l13.57-76.96c1.69-9.58,9.97-16.53,19.7-16.53h34.21c4.85,0,9.01-3.48,9.85-8.26l3.53-20c1.08-6.12-3.63-11.74-9.85-11.74h-37.74C44.47,0,19.55,20.91,14.5,49.58L.93,126.54c-6.48,36.74,21.78,70.42,59.09,70.42h78.15c29.12,0,54.03-20.91,59.09-49.58l6.55-37.16c1.08-6.12-3.63-11.74-9.85-11.74h-20.31Z"/>
  </g>
</svg>