<?xml version="1.0" encoding="UTF-8"?>
<svg id="Layer_2" data-name="Layer 2" xmlns="http://www.w3.org/2000/svg" viewBox="0 0 337.33 228.07">
  <defs>
    <style>
      .cls-1 {
        fill: #f4eee8;
      }

      .cls-2 {
        fill: #f96815;
      }
    </style>
  </defs>
  <g id="Layer_3" data-name="Layer 3">
    <g>
      <path class="cls-1" d="m206.94,51.89l-22.48,124.41c-.78,4.29-4.94,7.77-9.31,7.77h-26.41c-4.37,0-7.28-3.47-6.51-7.77l7.99-44.28c.15-.87-.43-1.56-1.3-1.56h-51.17c-.87,0-1.71.71-1.86,1.56l-8.01,44.28c-.78,4.29-4.94,7.77-9.31,7.77h-26.41c-4.37,0-7.28-3.47-6.5-7.77l22.48-124.41c.78-4.29,4.94-7.77,9.31-7.77h26.4c4.37,0,7.27,3.47,6.51,7.77l-7.86,43.48c-.15.86.43,1.54,1.3,1.54h51.18c.87,0,1.71-.69,1.86-1.54l7.86-43.48c.78-4.29,4.94-7.77,9.31-7.77h26.4c4.37,0,7.27,3.47,6.52,7.77Z"/>
      <path class="cls-2" d="m211.66,193.42c-2.11,11.95-12.49,20.66-24.62,20.66H38.93c-15.54,0-27.32-14.03-24.62-29.34L40.77,34.66c2.11-11.95,12.49-20.66,24.62-20.66h135.21c2.43,0,4.5-1.74,4.92-4.13l.71-4c.54-3.06-1.82-5.87-4.92-5.87H65.39C46.46,0,30.27,13.59,26.98,32.23L.64,181.65c-1.85,10.48.33,21.38,6.52,30.04,7.4,10.36,19.19,16.38,31.78,16.38h148.11c18.93,0,35.12-13.59,38.41-32.23l17.54-99.45c.54-3.06-1.82-5.87-4.92-5.87h-4.06c-2.43,0-4.5,1.74-4.92,4.13l-17.41,98.76Z"/>
      <g>
        <path class="cls-1" d="m243.51,70.53h-13.26c-2.18,0-3.64-1.75-3.26-3.9l8.29-45.88c.24-1.29-.63-2.33-1.95-2.33h-5.4c-2.19,0-3.64-1.75-3.26-3.9l1.91-10.6c.39-2.15,2.48-3.9,4.67-3.9h25c2.18,0,3.65,1.75,3.26,3.9l-11.34,62.73c-.38,2.15-2.47,3.89-4.67,3.89Z"/>
        <path class="cls-1" d="m337.03,18.4l-6.11,33.8c-1.81,10.12-11.65,18.32-21.95,18.32h-32.17c-10.3,0-17.16-8.21-15.34-18.32l6.11-33.8c1.82-10.12,11.66-18.33,21.94-18.33h32.2c10.29,0,17.17,8.21,15.32,18.33Zm-21.65,2.15c.23-1.29-.64-2.34-1.97-2.34h-22.15c-1.31,0-2.57,1.05-2.82,2.34l-5.29,29.25c-.22,1.29.65,2.34,1.96,2.34h22.16c1.32,0,2.57-1.05,2.81-2.34l5.29-29.25Z"/>
      </g>
    </g>
  </g>
</svg>