<?xml version="1.0" encoding="UTF-8"?>
<svg id="Layer_2" data-name="Layer 2" xmlns="http://www.w3.org/2000/svg" viewBox="0 0 804.27 228.07">
  <defs>
    <style>
      .cls-1 {
        fill: #dfdad6;
      }
    </style>
  </defs>
  <g id="Layer_3" data-name="Layer 3">
    <g>
      <g>
        <path class="cls-1" d="m206.83,51.89l-22.48,124.41c-.78,4.29-4.94,7.77-9.31,7.77h-26.41c-4.37,0-7.28-3.47-6.51-7.77l7.99-44.28c.15-.87-.43-1.56-1.3-1.56h-51.17c-.87,0-1.71.71-1.86,1.56l-8.01,44.28c-.78,4.29-4.94,7.77-9.31,7.77h-26.41c-4.37,0-7.28-3.47-6.5-7.77l22.48-124.41c.78-4.29,4.94-7.77,9.31-7.77h26.4c4.37,0,7.27,3.47,6.51,7.77l-7.86,43.48c-.15.86.43,1.54,1.3,1.54h51.18c.87,0,1.71-.69,1.86-1.54l7.86-43.48c.78-4.29,4.94-7.77,9.31-7.77h26.4c4.37,0,7.27,3.47,6.52,7.77Z"/>
        <path class="cls-1" d="m360.73,51.15l-63.66,81.54c-.58,1.28-1.14,2.53-1.71,3.81l-7.19,39.8c-.78,4.29-4.94,7.77-9.31,7.77h-26.4c-4.37,0-7.29-3.48-6.5-7.77l7.19-39.8c-.15-1.41-.3-2.75-.46-4.16l-34.06-81.2c-1.3-3.11,1.69-7.02,5.35-7.02h33.49c2.79,0,5.11,1.45,6.08,3.83l17.32,41.27c.59,1.41,2.51,1.71,3.42.54l32.65-41.81c1.86-2.38,4.7-3.83,7.51-3.83h33.49c3.68,0,5.24,3.92,2.82,7.04Z"/>
        <path class="cls-1" d="m504.34,112.34c-3.64,20.16-23.23,36.51-43.74,36.51l-63.94.06c-.87,0-1.71.71-1.86,1.56l-4.66,25.83c-.78,4.29-4.94,7.77-9.31,7.77h-26.37c-4.37,0-7.29-3.47-6.5-7.77l22.5-124.52c.78-4.29,4.95-7.77,9.31-7.77h99.77c20.52,0,34.19,16.34,30.55,36.51l-5.74,31.81Zm-43.39-33.28h-51.64c-.87,0-1.71.71-1.86,1.56l-5.72,31.66c-.15.87.43,1.56,1.3,1.56h51.64c3.88,0,7.58-3.1,8.29-6.91l3.79-20.94c.69-3.83-1.91-6.95-5.8-6.93Z"/>
        <path class="cls-1" d="m510.45,184.07c-4.37,0-7.29-3.48-6.5-7.77l22.5-124.54c.78-4.29,4.95-7.77,9.31-7.77h99.79c20.51,0,34.19,16.35,30.53,36.53l-5.74,31.83c-2.51,13.84-12.56,25.81-25.25,31.98-.91.45-1.38,1.47-.95,2.23l16.45,28.63c2.17,3.87-.54,8.49-4.96,8.49-13.75,0-22.28.43-27.89.35-9.59.15-12.77-.26-14.51-3.74l-15.05-29.37c-.65-1.28-1.97-2.06-3.55-2.06l-31.94.04c-.87,0-1.71.71-1.86,1.56l-4.66,25.83c-.78,4.29-4.94,7.77-9.31,7.77h-26.39Zm47.29-71.83c-.15.87.43,1.56,1.3,1.56h51.64c3.89,0,7.58-3.1,8.29-6.91l3.79-20.94c.69-3.83-1.89-6.93-5.8-6.93h-51.64c-.87,0-1.71.71-1.86,1.56l-5.72,31.66Z"/>
      </g>
      <path class="cls-1" d="m678.61,193.42c-2.11,11.95-12.49,20.66-24.62,20.66H38.93c-15.54,0-27.32-14.03-24.62-29.34L40.77,34.66c2.11-11.95,12.49-20.66,24.62-20.66h602.15c2.43,0,4.5-1.74,4.92-4.13l.71-4c.54-3.06-1.82-5.87-4.92-5.87H65.39C46.46,0,30.27,13.59,26.98,32.23L.64,181.65c-1.85,10.48.33,21.38,6.52,30.04,7.4,10.36,19.19,16.38,31.78,16.38h615.06c18.93,0,35.12-13.59,38.41-32.23l17.54-99.45c.54-3.06-1.82-5.87-4.92-5.87h-4.06c-2.43,0-4.5,1.74-4.92,4.13l-17.41,98.76Z"/>
      <g>
        <path class="cls-1" d="m710.46,70.53h-13.26c-2.18,0-3.64-1.75-3.26-3.9l8.29-45.88c.24-1.29-.63-2.33-1.95-2.33h-5.4c-2.19,0-3.64-1.75-3.26-3.9l1.91-10.6c.39-2.15,2.48-3.9,4.67-3.9h25c2.18,0,3.65,1.75,3.26,3.9l-11.34,62.73c-.38,2.15-2.47,3.89-4.67,3.89Z"/>
        <path class="cls-1" d="m803.97,18.4l-6.11,33.8c-1.81,10.12-11.65,18.32-21.95,18.32h-32.17c-10.3,0-17.16-8.21-15.34-18.32l6.11-33.8c1.82-10.12,11.66-18.33,21.94-18.33h32.2c10.29,0,17.17,8.21,15.32,18.33Zm-21.65,2.15c.23-1.29-.64-2.34-1.97-2.34h-22.15c-1.31,0-2.57,1.05-2.82,2.34l-5.29,29.25c-.22,1.29.65,2.34,1.96,2.34h22.16c1.32,0,2.57-1.05,2.81-2.34l5.29-29.25Z"/>
      </g>
    </g>
  </g>
</svg>